<?xml version="1.0" encoding="utf-8"?>
<!-- Generator: Adobe Illustrator 27.9.0, SVG Export Plug-In . SVG Version: 6.00 Build 0)  -->
<svg version="1.1" id="Layer_1" xmlns="http://www.w3.org/2000/svg" xmlns:xlink="http://www.w3.org/1999/xlink" x="0px" y="0px"
	 viewBox="0 0 405.9 468.9" style="enable-background:new 0 0 405.9 468.9;" xml:space="preserve">
<path d="M80.9,259.6c3.1,12.9,8.5,24.7,13.2,36.8c1.5,3.8,2.8,7.6,4.1,11.5c0.9,2.6,1.4,5.3,2.9,7.6c6.2,9.3,5.5,19.2,2.5,29.3
	c-3.6,12.2-9.1,23.7-14.2,35.3c-4.9,11.2-10.2,22.2-14.1,33.7c-2.2,6.4-3.8,13-2.8,19.9c1.3,9,8,12.8,16.3,9
	c5.5-2.5,9.1-7.1,12.3-12c10.1-15.7,17.8-32.6,25.1-49.7c5.4-12.6,9.7-25.7,13.7-38.8c4.2-13.7,3.6-26.8-2.3-39.8
	c-0.6-1.4-1.1-2.9-1.6-4.4c-0.9-3.1-0.1-5.7,2.1-7.2c2.4-1.6,5.2-1.3,7.7,1c4.2,3.8,7.8,8.1,11.3,12.5c5.6,7.2,10.5,14.9,14,23.4
	c4.8,11.7,4.1,23.2-0.2,34.8c-5.2,14.1-12.4,27.3-19.1,40.7c-4.4,8.8-9.3,17.5-11.5,27.2c-0.9,3.9-1.2,7.8-1,11.8
	c0.5,9.1,7.6,15,16.8,13.9c5.7-0.7,10.2-3.6,13.7-8c4.6-5.8,7.9-12.4,11.1-19.1c9.5-19.8,17.4-40.4,25.2-60.9c1.5-3.8,3-7.6,5.1-11
	c1.3-2.1,1.3-4.1,0.9-6.4c-1.6-9.5-5.8-18-10.5-26.3c-7.5-13.2-15.4-26.2-20.8-40.5c-2.4-6.4-4-12.9-4.8-19.7
	c-0.1-0.9-0.4-1.9,0.6-3.1c3.8,1.9,7.4,4.3,10.9,6.8c0.4,0.3,0.6,1,0.7,1.5c2.9,12.9,9.1,24.4,15.5,35.9
	c5.4,9.8,11.5,19.3,15.8,29.7c4.4,10.7,4.4,20.9-0.5,31.7c-7,15.4-12.2,31.6-19,47.1c-5.6,12.9-11,25.8-18.8,37.6
	c-5,7.6-11.5,13.5-20.8,15.1c-15.1,2.7-32.3-5.1-32.2-25.9c0-10.6,3-20.4,7.6-29.8c6.3-13,13-25.8,19.2-38.8
	c3.5-7.3,6.6-14.8,8.2-22.9c1.3-6.4-0.2-12.3-2.5-18.1c-1.6-4.1-3.8-7.8-6.5-12.3c-0.1,5.6,0,10.5-0.9,15.3
	c-3.1,15.7-8.3,30.8-14.3,45.6c-7.3,18-15.4,35.8-25.4,52.5c-4.7,7.8-9.9,15.1-18,19.7c-10.8,6.1-21.9,4.3-29-4.7
	c-3.4-4.3-4.9-9.4-5.2-14.8c-0.6-10.4,2.5-20.1,6.3-29.6c6.5-16.5,14.4-32.4,21-48.8c2.7-6.8,5.2-13.7,6.1-21.1
	c0.5-4.3-0.6-8.1-2.2-11.8c-6.5-14.8-12.5-29.8-18.2-44.9c-6.2-16.4-7.7-33.3-4.8-50.5c1.5-8.9,5.3-17,9.1-25
	c0.6-1.3,1.4-1.6,2.7-0.8c7.9,4.1,8.1,4.2,4.4,11.9C78.4,227,77.7,242.9,80.9,259.6z"/>
<path d="M50.9,115c3.9-7.8,8.1-15.3,13.4-22c4.6-5.8,10.2-10.3,16.8-13.6c22.5-11.1,46.1-19.2,71-23.1c11.3-1.8,22.7-2.9,34.1-2
	c11.9,1,23.1,4.6,33.8,9.9c2,1,3.9,2,6.2,3.1c-12.5-22-5.2-43.5,8-55.1c14.4-12.7,35.4-14.3,51.3-4.1c16.1,10.3,23.5,30,18.3,47.9
	c-4.9,16.7-20.6,32.8-47,31.1c4.8,3.9,9.4,7.5,13.6,11.7c0.7,0.7,1.4,1.4,2.1,2c14.8,13.3,17.5,30.6,15.6,49.2
	c-1.6,16.2-6.2,31.9-9.9,47.7c-2.6,11.1-5.5,22.2-5.5,33.7c0,2.8,0.5,5.4,1.4,7.9c4.6,13.1,9.9,25.9,15.7,38.4
	c3,6.4,5.8,12.9,7.5,19.8c0.2,0.7,0.4,1.5,0.1,2.4c-2.1-0.1-3.3-1.8-5-2.6c-6-2.9-9.7-7.4-12.3-13.7c-5.5-13.2-11.4-26.3-16.3-39.8
	c-2.8-7.8-2.6-15.6-1.6-23.5c2.1-16.1,6.8-31.6,10.4-47.3c2.9-12.6,5.2-25.1,4.6-38.2c-0.4-8.3-3-15.4-8.4-21.7
	c-5.8-6.7-12.5-12.4-19.6-17.7c-11.7-8.7-23.9-16.5-37.1-22.7c-13-6.1-26.6-8.2-40.9-7.3c-23.3,1.5-45.4,7.3-66.9,15.9
	c-5.1,2-10.1,4.4-15.2,6.6c-9.9,4.2-16.7,11.7-22,20.8c-5.7,9.8-10.5,20.1-14.8,30.6c-0.4,1.1-0.9,2.1-1.5,3.5
	c-3.2-1.5-6-3.3-8.6-5.4c-1.1-0.9-0.2-2.2,0.2-3.2C44.9,127.9,47.6,121.5,50.9,115 M293.3,38.1c-4-17.7-20.8-28.4-38-24.2
	c-16.3,3.9-26.1,19-23.8,35.3c2.4,16.7,18.4,28.6,35,26.3C284.4,73.1,296.6,56.5,293.3,38.1z"/>
<path d="M56.4,156.7c52.9,33.8,105.6,67.6,158.3,101.2c27.3,17.4,54.5,34.8,81.8,52.2c2.6,1.7,5.1,3.5,7.8,5.1
	c1.7,1,2.1,1.9,0.8,3.6c-1.7,2.3-3.4,4.7-4.7,7.3c-1.4,2.8-2.8,2.4-4.9,1c-7.8-5.1-15.6-10.1-23.5-15.1
	c-33.3-21.3-66.6-42.6-99.9-63.9c-49.6-31.7-99.2-63.5-148.8-95.2c-4.8-3.1-9.6-6.1-14.5-9.2c-1.1-0.7-2.1-1.4-3.1-2.2
	c-2.9-2.5-3.5-6.3-1.5-9.4c1.8-2.9,5.5-4.1,8.9-2.6c1.5,0.6,2.9,1.5,4.3,2.4C30.4,140.1,43.3,148.4,56.4,156.7z"/>
<path d="M392.6,391c-7.4,6.8-15.8,11.6-25.5,13.6c-12.4,2.6-24.3,0.8-35.6-4.7c-9.1-4.5-17.4-10.1-24.8-17.1
	c-11.4-10.6-13.5-23.4-9.3-37.7c2.3-7.8,7-14.4,11.6-21c5.4-7.8,11.5-15.1,18.7-21.3c5.8-4.9,12.3-6.8,19.5-4.7
	c22.2,6.5,40.4,18.3,51.6,39.3c7.8,14.6,7.3,29.3,0.7,44.2C397.9,385.2,395.6,388.2,392.6,391 M389.5,344.8
	c-1.3-2.8-2.5-5.7-4.4-8.2c-9.8-13.2-23-21.6-38.4-26.8c-5.1-1.7-9.1-0.6-13,3.1c-8.7,8.1-15.3,17.7-21.6,27.6
	c-2,3.1-3.3,6.6-4.2,10.2c-2.4,9.1-0.5,17,6.5,23.5c6.9,6.4,14.5,11.7,23,15.6c11.5,5.3,23.4,6.1,35.1,0.8c6.8-3,13.2-6.9,16.4-14.1
	C393.6,366.3,394.9,355.8,389.5,344.8z"/>
<path d="M112.1,152.4c9.7-12.6,19.6-24.7,28.3-37.8c2-3,4.1-6.1,5.1-9.7c-1.1-1.3-2.5-1.3-3.8-1.2c-19.2,1.9-36.4,7.5-46.7,25.7
	c-5,8.9-9.4,18-13.6,27.3c-0.6,1.4-1.1,2.9-2.5,4.5c-2.7-1.7-5.4-3.4-8.1-5.2c-0.9-0.6-0.7-1.5-0.3-2.4
	c5.9-12.7,11.5-25.6,19.6-37.2c6.7-9.4,16.3-14.6,26.7-18.7c7.3-2.9,14.9-4.7,22.8-5.2c3.6-0.2,7.2,0.2,10.5,1.7
	c5.1,2.2,7.5,7.1,6.4,12.6c-1.1,5.1-3.9,9.5-6.7,13.8c-11.1,16.7-23.9,32.1-36.1,48.1c-2.1,2.8-4.3,5.5-6.3,8.4
	c-1,1.5-2,1.5-3.4,0.6c-1.8-1.2-3.5-2.4-5.4-3.4c-1.7-1-1.7-2-0.6-3.5C102.8,164.5,107.3,158.5,112.1,152.4z"/>
<path d="M208,211.1c-5,7.6-9.5,15.3-13.6,23.4c-3.2-1.3-5.7-3.4-8.4-5c-1.6-1-0.5-2.2,0-3.3c4.7-8.9,10-17.5,15.7-25.8
	c10-14.5,20.6-28.6,32.8-41.4c1.6-1.7,3.3-3.3,5.1-4.7c2.2-1.7,4.8-2.2,7.4-1c2.7,1.3,3.9,3.7,4,6.6c0.3,5.4-1,10.6-2.1,15.8
	c-2.4,11.3-5.7,22.5-7.8,33.9c-3.5,18.5-2.6,36.7,3.8,54.6c0.3,0.7,0.4,1.5,0.6,2.2c0,0.1-0.1,0.3-0.3,0.7c-2.4-0.3-3.8-2.4-5.9-3.3
	c-6.3-2.6-8.6-7.6-9.8-14c-2-10.8-1.6-21.5-0.7-32.3c1.2-14.4,5.7-28,8.7-42c0.3-1.2,0.5-2.4,0.8-4.2
	C227.1,184.1,217.3,197.2,208,211.1z"/>
<path d="M36.6,171.2c1.6,1,2.9,2,4.3,2.7c2.7,1.4,4.7,3.5,6.1,6.3c2,3.9,3.1,4.2,7.5,3.3c1-0.2,1.7,0.2,2.4,0.7
	c1.4,0.9,2.8,1.7,4.2,2.6c3.4,2.2,3.4,2.7,0.2,5.4c-5.3,4.4-12.2,4.9-17.7,0.8c-7.7-5.8-10.3-14-11-23.2
	C34.6,169.4,35.4,170.6,36.6,171.2z"/>
<path d="M264.4,316.8c5.3,3.3,10.4,6.6,15.7,10c-4.3,1.4-14.9-5.1-17.7-10.6C263.2,315.7,263.6,316.5,264.4,316.8z"/>
</svg>
