<?xml version="1.0" encoding="utf-8"?>
<!-- Generator: Adobe Illustrator 27.9.0, SVG Export Plug-In . SVG Version: 6.00 Build 0)  -->
<svg version="1.1" id="Layer_1" xmlns="http://www.w3.org/2000/svg" xmlns:xlink="http://www.w3.org/1999/xlink" x="0px" y="0px"
	 viewBox="0 0 416.3 475.4" style="enable-background:new 0 0 416.3 475.4;" xml:space="preserve">
<path d="M286.5,293.4c-14.9-9.4-29.6-18.8-44.4-28c-1.7-1.1-2.6-2.4-3.1-4.3c-3.6-13-3.5-26.1-2.2-39.4c1.3-13.2,5.2-25.8,8-38.6
	c0.3-1.5,0.7-3,0.3-4.8c-1.5,0.4-2.2,1.6-3,2.6c-14.5,17.6-28.1,35.8-38.6,56.1c-1.1,2.2-2.1,2.2-4,1c-27.5-17.6-55-35.1-82.5-52.7
	c-3.3-2.1-6.6-4.1-9.9-6c-2.1-1.2-2.3-2.3-0.8-4.3c10.9-14.1,21.8-28.2,32.6-42.4c4.6-6,9-12.1,12.7-18.8c0.7-1.3,1.5-2.5,1.4-4.2
	c-1.6-1.4-3.6-1.2-5.5-1c-13.1,1.3-25.2,5.5-35.5,13.8c-6.2,5-9.7,12.3-13.3,19.2c-3.6,6.9-6.7,14-10,21c-0.5,1.1-0.8,2.4-2.2,3.3
	c-2.1-1.3-4.4-2.6-6.5-4c-9.3-6.5-19.1-12.2-28.7-18.2c-1.3-0.8-2.5-1.4-1.7-3.4c6.1-14.5,12.3-28.9,21.9-41.5
	c6.1-8,14.3-13.1,23.4-17.2c19.6-8.8,39.8-15.9,61-19.5c14.1-2.4,28.3-4.1,42.7-2.1c10.6,1.5,20.5,4.9,29.9,9.8
	c1.5,0.7,2.9,1.4,5.2,2.5C225,55.1,225,39,236,23.8c6.7-9.3,16-14.8,27.3-16.7c23-3.9,45.3,11.8,49.1,34.5
	c2.3,14.1-1.1,26.6-10.9,37c-9.6,10.3-21.9,14.3-36.6,13.5c4.7,4.1,8.9,7.4,12.8,11.2c8.6,8.2,16.1,17.2,17.7,29.5
	c1.3,10.1,1.1,20.3-0.7,30.4c-3.1,18.4-8.6,36.3-12.2,54.6c-0.9,4.4-1.5,8.8-2,13.2c-0.6,5.8,0.6,11.2,2.5,16.7
	c5.2,15.3,12.5,29.6,18.6,44.5c1.4,3.3,2.5,6.7,3.4,10.2c0.2,0.8,0.6,1.7-0.2,2.8C298.5,301.7,292.7,297.5,286.5,293.4z"/>
<path d="M86,206.5c0.5-0.9,0.8-1.8,2-2.4c4.6,2.9,9.5,5.8,14.3,8.9c30.2,19.3,60.3,38.7,90.5,57.9c1.9,1.2,2.9,2.7,3.5,5
	c3,12,8.8,22.9,14.8,33.7c5.7,10.3,12.2,20.2,16.5,31.3c4,10.2,3.8,19.9-0.6,30c-6.3,14.4-11.6,29.3-17.7,43.9
	c-5.8,14.1-11.8,28.3-20.2,41.2c-5.1,7.8-11.7,13.8-21.2,15.5c-15.5,2.7-32.1-5.7-32-25.9c0-11.2,3.4-21.3,8.2-31.2
	c6.7-13.9,14.2-27.4,20.5-41.4c1.9-4.3,3.6-8.8,5.1-13.3c3-8.6,2.1-17-1.6-25.1c-1.4-3-2.6-6-4.7-8.4c-1.2,0.4-1.3,1.2-1.3,2
	c0.1,10.6-2.9,20.7-6,30.6c-8.7,27.4-20.2,53.6-34.7,78.5c-4.6,7.8-9.9,15.1-18.1,19.6c-10.8,5.9-21.7,4.2-28.8-4.7
	c-3.4-4.3-5-9.3-5.3-14.8c-0.7-10.4,2.4-20.1,6.2-29.6c5.8-14.7,12.7-28.9,18.8-43.4c3.6-8.7,7.3-17.3,8.5-26.7
	c0.5-4.2-0.6-7.9-2.2-11.5c-5.6-12.8-10.6-25.8-15.9-38.6c-6.6-15.9-9.6-32.2-8.3-49.4c0.8-10.6,4.4-20.4,9-29.8
	C85.4,207.7,85.6,207.2,86,206.5z"/>
<path d="M124.4,217.7c-36.2-23.1-72.2-46.1-108.1-69.1c-0.7-0.5-1.5-0.9-2.2-1.4c-3.5-2.7-4.4-7-2.2-10.3c2.2-3.3,6.5-4.3,10.3-2.1
	c4.3,2.5,8.4,5.2,12.5,7.9c47.8,30.6,95.6,61.2,143.4,91.8c41.9,26.8,83.8,53.4,125.6,80.2c5.2,3.3,10.4,6.7,15.7,10.2
	c2.5-3.1,4.9-6,7.3-8.9c2.9-3.5,6.3-6.5,9.9-9.3c5.3-4.1,11.2-5.2,17.6-3.9c12.5,2.6,23.2,9,33.2,16.7c7.8,6,14.4,13,19,21.7
	c9.5,18.1,7.4,38.1-3.1,51.6c-8,10.3-19.4,15.7-32.4,17.6c-12.5,1.8-24-1.2-34.9-7.1c-7.8-4.3-15.2-9.2-21.9-15.2
	c-11.1-10-12.8-22.4-9.4-36.1c1-4.1,2.6-8.1,4.9-11.7c1.4-2.2,1.1-3.4-1.1-4.8c-14.1-8.9-28.1-17.9-42.2-26.8
	c-39.6-25.3-79.1-50.7-118.7-76C140,227.5,132.3,222.7,124.4,217.7z"/>
<path d="M58,184.7c4,2.6,7.8,5.1,11.6,7.6c2.6,1.7,2.6,2.1,0.3,4.3c-6,5.6-14.2,5.6-20.4-0.2c-5.8-5.5-8.3-12.7-8.9-20.6
	c0-0.4,0.1-0.7,0.4-1.7C46.8,177.6,52.3,181.1,58,184.7z"/>
<path d="M284.9,329.7c1.1,0.7,2.2,1.1,2.9,2.1c-4.2,1.3-14.7-5.2-17.3-11.2C275.3,323.6,280,326.6,284.9,329.7z"/>
</svg>
