<?xml version="1.0" encoding="utf-8"?>
<!-- Generator: Adobe Illustrator 27.9.0, SVG Export Plug-In . SVG Version: 6.00 Build 0)  -->
<svg version="1.1" id="_x32_" xmlns="http://www.w3.org/2000/svg" xmlns:xlink="http://www.w3.org/1999/xlink" x="0px" y="0px"
	 viewBox="0 0 512 512" style="enable-background:new 0 0 512 512;" xml:space="preserve">
<style type="text/css">
	.st0{fill:#231815;}
</style>
<g>
	<path class="st0" d="M459,311c2.9-4.3,5.6-8.7,8.1-13c0.7-1.1,1.3-2.3,2-3.4c2.1-3.6,4-7.1,5.9-10.7c0.9-1.7,1.8-3.3,2.6-5
		c1.5-2.9,2.9-5.8,4.2-8.7c1-2.1,2-4.2,2.9-6.3c1-2.3,1.9-4.6,2.9-6.8c1.1-2.6,2.1-5.1,3.1-7.7c0.6-1.6,1.1-3.1,1.7-4.7
		c5.3-14.7,9.1-28.9,11.6-42.6c0.4-2,0.8-3.9,1.1-5.8c0.3-1.7,0.5-3.3,0.7-4.9c0.4-2.9,0.8-5.7,1.1-8.5c0.1-0.8,0.2-1.6,0.2-2.4
		c7.2-69.8-15.4-122.4-25-138.4c-2.2-3.7-5.3-6.8-9-9c-28.8-17.5-161-96-333,76.1l-82.6,82.6c-6.3,6.3-4.9,18,3.2,26l51.8,28.2
		c6,4.5,12,9.1,17.9,13.9l78.6-58.4c23.4-21.1,64.9-3.2,86.5,18.4c21.5,21.5,39.4,63.1,18.4,86.6l-58.4,78.6
		c4.8,5.9,9.4,11.8,13.9,17.9l28.1,51.7c8.1,8.1,19.8,9.6,26.1,3.3c0,0,82.3-82.1,82.6-82.6c21.1-21.1,38-42.1,51.7-62.8
		C458.4,311.9,458.7,311.4,459,311z"/>
	<path class="st0" d="M265,250.4c-9.7-9.7-23.3-15-28.7-15.1l-71.6,53.2l-48.9,36.3L7.5,433.2c-9.1,9.5-3.4,35.7,17.8,57
		c3.9,3.9,7.9,7,11.9,9.8c0.3,0.2,0.6,0.4,0.9,0.6c11.1,7.6,22.4,11.3,31.2,11.4c0.1,0,0.2,0,0.2,0h0c0.1,0,0.1,0,0.2,0
		c3.8,0,7-0.7,9.6-2.2c0.4-0.2,0.8-0.5,1.2-0.8c0.6-0.4,1.3-0.6,1.7-1.1l2-1.8l106.4-106.4l36.3-48.9l53.2-71.6
		C280,273.8,274.7,260.2,265,250.4z"/>
</g>
</svg>
